<mxfile host="app.diagrams.net" modified="2023-09-27T15:08:04.162Z" agent="Mozilla/5.0 (Windows NT 10.0; Win64; x64) AppleWebKit/537.36 (KHTML, like Gecko) Chrome/116.0.0.0 Safari/537.36 Edg/116.0.1938.81" etag="y6cLoeCqg__4trqH3Qq1" version="21.8.2" type="github">
  <diagram id="yPxyJZ8AM_hMuL3Unpa9" name="complex gitflow">
    <mxGraphModel dx="1109" dy="741" grid="1" gridSize="10" guides="1" tooltips="1" connect="1" arrows="1" fold="1" page="1" pageScale="1" pageWidth="1100" pageHeight="850" math="0" shadow="0">
      <root>
        <mxCell id="0" />
        <mxCell id="1" parent="0" />
        <mxCell id="QDM2Al_dsE5SoyRe2S7c-2" value="" style="edgeStyle=orthogonalEdgeStyle;rounded=0;html=1;jettySize=auto;orthogonalLoop=1;plain-blue;endArrow=none;endFill=0;strokeWidth=4;strokeColor=#000000;" edge="1" parent="1" source="QDM2Al_dsE5SoyRe2S7c-4">
          <mxGeometry x="292.25" y="211" as="geometry">
            <mxPoint x="475.07" y="319" as="targetPoint" />
          </mxGeometry>
        </mxCell>
        <mxCell id="QDM2Al_dsE5SoyRe2S7c-4" value="" style="verticalLabelPosition=bottom;verticalAlign=top;html=1;strokeWidth=4;shape=mxgraph.flowchart.on-page_reference;plain-blue;gradientColor=none;fillColor=#B5E3Fe;strokeColor=#000000;" vertex="1" parent="1">
          <mxGeometry x="257.44" y="304" width="30" height="30" as="geometry" />
        </mxCell>
        <mxCell id="QDM2Al_dsE5SoyRe2S7c-5" value="" style="edgeStyle=orthogonalEdgeStyle;curved=1;rounded=0;orthogonalLoop=1;jettySize=auto;html=1;endArrow=none;endFill=0;strokeWidth=4;entryX=0;entryY=0.5;entryDx=0;entryDy=0;entryPerimeter=0;" edge="1" parent="1" source="QDM2Al_dsE5SoyRe2S7c-7" target="QDM2Al_dsE5SoyRe2S7c-8">
          <mxGeometry relative="1" as="geometry">
            <mxPoint x="729.6899999999996" y="319" as="targetPoint" />
          </mxGeometry>
        </mxCell>
        <mxCell id="QDM2Al_dsE5SoyRe2S7c-6" style="edgeStyle=orthogonalEdgeStyle;curved=1;rounded=0;orthogonalLoop=1;jettySize=auto;html=1;exitX=1;exitY=0.5;exitDx=0;exitDy=0;exitPerimeter=0;entryX=0;entryY=0.5;entryDx=0;entryDy=0;entryPerimeter=0;endArrow=none;endFill=0;strokeWidth=4;fontFamily=Courier New;fontColor=#009900;" edge="1" parent="1" source="QDM2Al_dsE5SoyRe2S7c-7" target="QDM2Al_dsE5SoyRe2S7c-44">
          <mxGeometry relative="1" as="geometry" />
        </mxCell>
        <mxCell id="QDM2Al_dsE5SoyRe2S7c-7" value="" style="verticalLabelPosition=bottom;verticalAlign=top;html=1;strokeWidth=4;shape=mxgraph.flowchart.on-page_reference;plain-blue;gradientColor=none;strokeColor=#000000;fillColor=#B5E3FE;" vertex="1" parent="1">
          <mxGeometry x="617.44" y="304" width="30" height="30" as="geometry" />
        </mxCell>
        <mxCell id="QDM2Al_dsE5SoyRe2S7c-8" value="" style="verticalLabelPosition=bottom;verticalAlign=top;html=1;strokeWidth=4;shape=mxgraph.flowchart.on-page_reference;plain-blue;gradientColor=none;strokeColor=#33001A;fillColor=#B5E3FE;" vertex="1" parent="1">
          <mxGeometry x="956.32" y="304" width="30" height="30" as="geometry" />
        </mxCell>
        <mxCell id="QDM2Al_dsE5SoyRe2S7c-9" value="" style="edgeStyle=orthogonalEdgeStyle;rounded=0;html=1;jettySize=auto;orthogonalLoop=1;strokeWidth=4;endArrow=none;endFill=0;" edge="1" parent="1" target="QDM2Al_dsE5SoyRe2S7c-4">
          <mxGeometry x="192.25" y="211" as="geometry">
            <mxPoint x="145.19" y="319" as="sourcePoint" />
          </mxGeometry>
        </mxCell>
        <mxCell id="QDM2Al_dsE5SoyRe2S7c-10" value="master" style="text;html=1;strokeColor=none;fillColor=none;align=left;verticalAlign=middle;whiteSpace=wrap;overflow=hidden;fontSize=14;fontStyle=1;fontFamily=Courier New;" vertex="1" parent="1">
          <mxGeometry x="30" y="296" width="50" height="42" as="geometry" />
        </mxCell>
        <mxCell id="QDM2Al_dsE5SoyRe2S7c-11" style="edgeStyle=orthogonalEdgeStyle;curved=1;rounded=0;html=1;exitX=1;exitY=0.5;exitPerimeter=0;endArrow=none;endFill=0;jettySize=auto;orthogonalLoop=1;strokeWidth=4;fontSize=15;" edge="1" parent="1" target="QDM2Al_dsE5SoyRe2S7c-14">
          <mxGeometry relative="1" as="geometry">
            <mxPoint x="364.9399999999999" y="404" as="sourcePoint" />
          </mxGeometry>
        </mxCell>
        <mxCell id="QDM2Al_dsE5SoyRe2S7c-13" style="edgeStyle=orthogonalEdgeStyle;curved=1;rounded=0;html=1;exitX=1;exitY=0.5;exitPerimeter=0;entryX=0;entryY=0.5;entryPerimeter=0;endArrow=none;endFill=0;jettySize=auto;orthogonalLoop=1;strokeWidth=4;fontSize=15;" edge="1" parent="1" source="QDM2Al_dsE5SoyRe2S7c-14" target="QDM2Al_dsE5SoyRe2S7c-16">
          <mxGeometry relative="1" as="geometry" />
        </mxCell>
        <mxCell id="QDM2Al_dsE5SoyRe2S7c-14" value="" style="verticalLabelPosition=bottom;verticalAlign=top;html=1;strokeWidth=4;shape=mxgraph.flowchart.on-page_reference;plain-purple;gradientColor=none;strokeColor=#000000;fillColor=#D5E8D4;" vertex="1" parent="1">
          <mxGeometry x="441.94" y="389" width="30" height="30" as="geometry" />
        </mxCell>
        <mxCell id="QDM2Al_dsE5SoyRe2S7c-15" style="edgeStyle=orthogonalEdgeStyle;curved=1;rounded=0;html=1;exitX=1;exitY=0.5;exitPerimeter=0;entryX=0;entryY=0.5;entryPerimeter=0;endArrow=none;endFill=0;jettySize=auto;orthogonalLoop=1;strokeWidth=4;fontSize=15;" edge="1" parent="1" source="QDM2Al_dsE5SoyRe2S7c-16" target="QDM2Al_dsE5SoyRe2S7c-7">
          <mxGeometry relative="1" as="geometry" />
        </mxCell>
        <mxCell id="QDM2Al_dsE5SoyRe2S7c-16" value="" style="verticalLabelPosition=bottom;verticalAlign=top;html=1;strokeWidth=4;shape=mxgraph.flowchart.on-page_reference;plain-purple;gradientColor=none;strokeColor=#000000;fillColor=#D5E8D4;" vertex="1" parent="1">
          <mxGeometry x="544.94" y="389" width="30" height="30" as="geometry" />
        </mxCell>
        <mxCell id="QDM2Al_dsE5SoyRe2S7c-17" value="release/1.2.0" style="text;html=1;strokeColor=none;fillColor=none;align=left;verticalAlign=middle;whiteSpace=wrap;overflow=hidden;fontSize=14;fontStyle=1;fontFamily=Courier New;" vertex="1" parent="1">
          <mxGeometry x="765.07" y="369" width="119.25" height="20" as="geometry" />
        </mxCell>
        <mxCell id="QDM2Al_dsE5SoyRe2S7c-29" value="" style="edgeStyle=orthogonalEdgeStyle;rounded=0;orthogonalLoop=1;jettySize=auto;html=1;endArrow=none;endFill=0;strokeWidth=4;" edge="1" parent="1" source="QDM2Al_dsE5SoyRe2S7c-30" target="QDM2Al_dsE5SoyRe2S7c-32">
          <mxGeometry relative="1" as="geometry" />
        </mxCell>
        <mxCell id="QDM2Al_dsE5SoyRe2S7c-32" value="" style="verticalLabelPosition=bottom;verticalAlign=top;html=1;strokeWidth=4;shape=mxgraph.flowchart.on-page_reference;plain-purple;gradientColor=none;strokeColor=#000000;fillColor=#FFCCFF;" vertex="1" parent="1">
          <mxGeometry x="384.82" y="448" width="30" height="30" as="geometry" />
        </mxCell>
        <mxCell id="QDM2Al_dsE5SoyRe2S7c-33" value="feature/wip-35-example feature" style="text;html=1;strokeColor=none;fillColor=none;align=left;verticalAlign=middle;whiteSpace=wrap;overflow=hidden;fontSize=14;fontStyle=1;fontFamily=Courier New;" vertex="1" parent="1">
          <mxGeometry x="30" y="448" width="187.75" height="20" as="geometry" />
        </mxCell>
        <mxCell id="QDM2Al_dsE5SoyRe2S7c-35" value="Your feature branch" style="text;html=1;strokeColor=none;fillColor=none;align=left;verticalAlign=middle;whiteSpace=wrap;overflow=hidden;fontSize=14;fontStyle=0;fontColor=#009900;" vertex="1" parent="1">
          <mxGeometry x="30" y="518" width="127.63" height="20" as="geometry" />
        </mxCell>
        <mxCell id="QDM2Al_dsE5SoyRe2S7c-36" value="The release branch" style="text;html=1;strokeColor=none;fillColor=none;align=left;verticalAlign=middle;whiteSpace=wrap;overflow=hidden;fontSize=14;fontStyle=0;fontColor=#009900;" vertex="1" parent="1">
          <mxGeometry x="30" y="409" width="127.63" height="20" as="geometry" />
        </mxCell>
        <mxCell id="QDM2Al_dsE5SoyRe2S7c-37" value="The main branch&lt;br&gt;" style="text;html=1;strokeColor=none;fillColor=none;align=left;verticalAlign=middle;whiteSpace=wrap;overflow=hidden;fontSize=14;fontStyle=0;fontColor=#009900;" vertex="1" parent="1">
          <mxGeometry x="30" y="328" width="146.75" height="20" as="geometry" />
        </mxCell>
        <mxCell id="QDM2Al_dsE5SoyRe2S7c-40" value="" style="endArrow=classic;html=1;strokeWidth=1;fontFamily=Courier New;fontColor=#009900;exitX=1;exitY=0.75;exitDx=0;exitDy=0;" edge="1" parent="1" source="QDM2Al_dsE5SoyRe2S7c-68">
          <mxGeometry width="50" height="50" relative="1" as="geometry">
            <mxPoint x="211.94" y="404" as="sourcePoint" />
            <mxPoint x="265.07" y="404" as="targetPoint" />
          </mxGeometry>
        </mxCell>
        <mxCell id="QDM2Al_dsE5SoyRe2S7c-41" value="Tag: 1.1.0, &lt;strike&gt;production, latest&lt;/strike&gt;" style="text;html=1;strokeColor=none;fillColor=none;align=center;verticalAlign=middle;whiteSpace=wrap;overflow=hidden;fontSize=14;" vertex="1" parent="1">
          <mxGeometry x="550.1800000000001" y="278" width="194.56" height="20" as="geometry" />
        </mxCell>
        <mxCell id="QDM2Al_dsE5SoyRe2S7c-42" value="Tag: 1.0.0, &lt;strike&gt;production, latest&lt;/strike&gt;" style="text;html=1;strokeColor=none;fillColor=none;align=center;verticalAlign=middle;whiteSpace=wrap;overflow=hidden;fontSize=14;" vertex="1" parent="1">
          <mxGeometry x="237.44" y="278" width="192.56" height="20" as="geometry" />
        </mxCell>
        <mxCell id="QDM2Al_dsE5SoyRe2S7c-43" value="" style="edgeStyle=orthogonalEdgeStyle;curved=1;rounded=0;orthogonalLoop=1;jettySize=auto;html=1;endArrow=none;endFill=0;strokeWidth=4;fontFamily=Courier New;fontColor=#009900;" edge="1" parent="1" source="QDM2Al_dsE5SoyRe2S7c-44" target="QDM2Al_dsE5SoyRe2S7c-46">
          <mxGeometry relative="1" as="geometry" />
        </mxCell>
        <mxCell id="QDM2Al_dsE5SoyRe2S7c-44" value="" style="verticalLabelPosition=bottom;verticalAlign=top;html=1;strokeWidth=4;shape=mxgraph.flowchart.on-page_reference;plain-purple;gradientColor=none;strokeColor=#000000;fillColor=#D5E8D4;" vertex="1" parent="1">
          <mxGeometry x="731.82" y="389" width="30" height="30" as="geometry" />
        </mxCell>
        <mxCell id="QDM2Al_dsE5SoyRe2S7c-45" style="edgeStyle=orthogonalEdgeStyle;curved=1;rounded=0;orthogonalLoop=1;jettySize=auto;html=1;entryX=0;entryY=0.5;entryDx=0;entryDy=0;entryPerimeter=0;endArrow=none;endFill=0;strokeWidth=4;fontFamily=Courier New;fontColor=#009900;" edge="1" parent="1" source="QDM2Al_dsE5SoyRe2S7c-46" target="QDM2Al_dsE5SoyRe2S7c-8">
          <mxGeometry relative="1" as="geometry" />
        </mxCell>
        <mxCell id="QDM2Al_dsE5SoyRe2S7c-46" value="" style="verticalLabelPosition=bottom;verticalAlign=top;html=1;strokeWidth=4;shape=mxgraph.flowchart.on-page_reference;plain-purple;gradientColor=none;strokeColor=#000000;fillColor=#D5E8D4;" vertex="1" parent="1">
          <mxGeometry x="881.82" y="389" width="30" height="30" as="geometry" />
        </mxCell>
        <mxCell id="QDM2Al_dsE5SoyRe2S7c-47" value="Tag: 1.2.0, production, latest" style="text;html=1;strokeColor=none;fillColor=none;align=center;verticalAlign=middle;whiteSpace=wrap;overflow=hidden;fontSize=14;" vertex="1" parent="1">
          <mxGeometry x="870" y="278" width="200" height="20" as="geometry" />
        </mxCell>
        <mxCell id="QDM2Al_dsE5SoyRe2S7c-52" value="" style="edgeStyle=orthogonalEdgeStyle;rounded=0;orthogonalLoop=1;jettySize=auto;html=1;fontSize=12;fontColor=#000000;entryX=0;entryY=0.5;entryDx=0;entryDy=0;" edge="1" parent="1" source="QDM2Al_dsE5SoyRe2S7c-53" target="QDM2Al_dsE5SoyRe2S7c-42">
          <mxGeometry relative="1" as="geometry">
            <mxPoint x="217.44" y="288" as="targetPoint" />
            <Array as="points">
              <mxPoint x="217.44" y="288" />
              <mxPoint x="217.44" y="288" />
            </Array>
          </mxGeometry>
        </mxCell>
        <mxCell id="QDM2Al_dsE5SoyRe2S7c-53" value="&lt;span style=&quot;text-align: center; font-size: 11px;&quot;&gt;Each tag represents a production release.&lt;/span&gt;" style="text;html=1;strokeColor=none;fillColor=none;align=left;verticalAlign=middle;whiteSpace=wrap;overflow=hidden;fontSize=11;fontStyle=0;fontColor=#000000;" vertex="1" parent="1">
          <mxGeometry x="89.69" y="266" width="120" height="38" as="geometry" />
        </mxCell>
        <UserObject label="Example diagram for a workflow similar to &quot;One-Release-flow&quot; :" link="https://nvie.com/posts/a-successful-git-branching-model/" id="QDM2Al_dsE5SoyRe2S7c-54">
          <mxCell style="text;whiteSpace=wrap;html=1;fontStyle=1;fontSize=16;" vertex="1" parent="1">
            <mxGeometry x="77.44" y="198" width="517.63" height="20" as="geometry" />
          </mxCell>
        </UserObject>
        <mxCell id="QDM2Al_dsE5SoyRe2S7c-59" value="" style="edgeStyle=orthogonalEdgeStyle;rounded=0;orthogonalLoop=1;jettySize=auto;html=1;fontSize=15;endArrow=none;endFill=0;strokeWidth=4;entryX=0;entryY=0.5;entryDx=0;entryDy=0;entryPerimeter=0;exitX=1;exitY=0.5;exitDx=0;exitDy=0;exitPerimeter=0;" edge="1" parent="1" source="QDM2Al_dsE5SoyRe2S7c-4" target="QDM2Al_dsE5SoyRe2S7c-7">
          <mxGeometry relative="1" as="geometry">
            <mxPoint x="555.44" y="319" as="targetPoint" />
            <mxPoint x="477.4400000000001" y="319" as="sourcePoint" />
          </mxGeometry>
        </mxCell>
        <mxCell id="QDM2Al_dsE5SoyRe2S7c-30" value="" style="verticalLabelPosition=bottom;verticalAlign=top;html=1;strokeWidth=4;shape=mxgraph.flowchart.on-page_reference;plain-purple;gradientColor=none;strokeColor=#000000;fillColor=#FFCCFF;" vertex="1" parent="1">
          <mxGeometry x="335.07" y="448" width="30" height="30" as="geometry" />
        </mxCell>
        <mxCell id="QDM2Al_dsE5SoyRe2S7c-66" value="" style="verticalLabelPosition=bottom;verticalAlign=top;html=1;strokeWidth=4;shape=mxgraph.flowchart.on-page_reference;plain-purple;gradientColor=none;strokeColor=#000000;fillColor=#D5E8D4;" vertex="1" parent="1">
          <mxGeometry x="335.07" y="389" width="30" height="30" as="geometry" />
        </mxCell>
        <mxCell id="QDM2Al_dsE5SoyRe2S7c-68" value="release/1.1.0" style="text;html=1;strokeColor=none;fillColor=none;align=left;verticalAlign=middle;whiteSpace=wrap;overflow=hidden;fontSize=14;fontStyle=1;fontFamily=Courier New;" vertex="1" parent="1">
          <mxGeometry x="30" y="389" width="127.63" height="20" as="geometry" />
        </mxCell>
        <mxCell id="QDM2Al_dsE5SoyRe2S7c-69" style="edgeStyle=orthogonalEdgeStyle;curved=1;rounded=0;orthogonalLoop=1;jettySize=auto;html=1;exitX=0.5;exitY=1;exitDx=0;exitDy=0;exitPerimeter=0;entryX=0;entryY=0.5;entryDx=0;entryDy=0;entryPerimeter=0;strokeWidth=4;endArrow=none;endFill=0;" edge="1" parent="1" source="QDM2Al_dsE5SoyRe2S7c-4" target="QDM2Al_dsE5SoyRe2S7c-66">
          <mxGeometry relative="1" as="geometry" />
        </mxCell>
        <mxCell id="QDM2Al_dsE5SoyRe2S7c-70" style="edgeStyle=orthogonalEdgeStyle;curved=1;rounded=0;orthogonalLoop=1;jettySize=auto;html=1;exitX=0.5;exitY=1;exitDx=0;exitDy=0;exitPerimeter=0;entryX=0;entryY=0.5;entryDx=0;entryDy=0;entryPerimeter=0;strokeWidth=4;endArrow=none;endFill=0;" edge="1" parent="1" source="QDM2Al_dsE5SoyRe2S7c-4" target="QDM2Al_dsE5SoyRe2S7c-30">
          <mxGeometry relative="1" as="geometry" />
        </mxCell>
        <mxCell id="QDM2Al_dsE5SoyRe2S7c-71" style="edgeStyle=orthogonalEdgeStyle;curved=1;rounded=0;orthogonalLoop=1;jettySize=auto;html=1;exitX=1;exitY=0.5;exitDx=0;exitDy=0;exitPerimeter=0;entryX=0.5;entryY=1;entryDx=0;entryDy=0;entryPerimeter=0;endArrow=none;endFill=0;strokeWidth=4;" edge="1" parent="1" source="QDM2Al_dsE5SoyRe2S7c-32" target="QDM2Al_dsE5SoyRe2S7c-14">
          <mxGeometry relative="1" as="geometry" />
        </mxCell>
        <mxCell id="QDM2Al_dsE5SoyRe2S7c-72" value="feature/wip-36-example feature" style="text;html=1;strokeColor=none;fillColor=none;align=left;verticalAlign=middle;whiteSpace=wrap;overflow=hidden;fontSize=14;fontStyle=1;fontFamily=Courier New;" vertex="1" parent="1">
          <mxGeometry x="30" y="498" width="196.25" height="20" as="geometry" />
        </mxCell>
        <mxCell id="QDM2Al_dsE5SoyRe2S7c-74" value="feature/wip-38-example feature" style="text;html=1;strokeColor=none;fillColor=none;align=left;verticalAlign=middle;whiteSpace=wrap;overflow=hidden;fontSize=14;fontStyle=1;fontFamily=Courier New;" vertex="1" parent="1">
          <mxGeometry x="30" y="613" width="196.13" height="20" as="geometry" />
        </mxCell>
        <mxCell id="QDM2Al_dsE5SoyRe2S7c-75" value="Your feature branch" style="text;html=1;strokeColor=none;fillColor=none;align=left;verticalAlign=middle;whiteSpace=wrap;overflow=hidden;fontSize=14;fontStyle=0;fontColor=#009900;" vertex="1" parent="1">
          <mxGeometry x="30" y="633" width="126.01" height="20" as="geometry" />
        </mxCell>
        <mxCell id="QDM2Al_dsE5SoyRe2S7c-76" value="" style="verticalLabelPosition=bottom;verticalAlign=top;html=1;strokeWidth=4;shape=mxgraph.flowchart.on-page_reference;plain-purple;gradientColor=none;strokeColor=#000000;fillColor=#FFCCFF;" vertex="1" parent="1">
          <mxGeometry x="437.32" y="493" width="30" height="30" as="geometry" />
        </mxCell>
        <mxCell id="QDM2Al_dsE5SoyRe2S7c-77" value="" style="verticalLabelPosition=bottom;verticalAlign=top;html=1;strokeWidth=4;shape=mxgraph.flowchart.on-page_reference;plain-purple;gradientColor=none;strokeColor=#000000;fillColor=#FFCCFF;" vertex="1" parent="1">
          <mxGeometry x="384.82" y="493" width="30" height="30" as="geometry" />
        </mxCell>
        <mxCell id="QDM2Al_dsE5SoyRe2S7c-78" style="edgeStyle=orthogonalEdgeStyle;curved=1;rounded=0;orthogonalLoop=1;jettySize=auto;html=1;exitX=0.5;exitY=1;exitDx=0;exitDy=0;exitPerimeter=0;entryX=0;entryY=0.5;entryDx=0;entryDy=0;entryPerimeter=0;strokeWidth=4;endArrow=none;endFill=0;" edge="1" parent="1" source="QDM2Al_dsE5SoyRe2S7c-4" target="QDM2Al_dsE5SoyRe2S7c-77">
          <mxGeometry relative="1" as="geometry" />
        </mxCell>
        <mxCell id="QDM2Al_dsE5SoyRe2S7c-79" style="edgeStyle=orthogonalEdgeStyle;curved=1;rounded=0;orthogonalLoop=1;jettySize=auto;html=1;exitX=1;exitY=0.5;exitDx=0;exitDy=0;exitPerimeter=0;entryX=-0.051;entryY=0.48;entryDx=0;entryDy=0;entryPerimeter=0;strokeWidth=4;endArrow=none;endFill=0;" edge="1" parent="1" source="QDM2Al_dsE5SoyRe2S7c-77" target="QDM2Al_dsE5SoyRe2S7c-76">
          <mxGeometry relative="1" as="geometry" />
        </mxCell>
        <mxCell id="QDM2Al_dsE5SoyRe2S7c-80" style="edgeStyle=orthogonalEdgeStyle;curved=1;rounded=0;orthogonalLoop=1;jettySize=auto;html=1;exitX=1;exitY=0.5;exitDx=0;exitDy=0;exitPerimeter=0;entryX=0.5;entryY=1;entryDx=0;entryDy=0;entryPerimeter=0;endArrow=none;endFill=0;strokeWidth=4;" edge="1" parent="1" source="QDM2Al_dsE5SoyRe2S7c-76" target="QDM2Al_dsE5SoyRe2S7c-16">
          <mxGeometry relative="1" as="geometry" />
        </mxCell>
        <mxCell id="QDM2Al_dsE5SoyRe2S7c-82" value="" style="verticalLabelPosition=bottom;verticalAlign=top;html=1;strokeWidth=4;shape=mxgraph.flowchart.on-page_reference;plain-purple;gradientColor=none;strokeColor=#000000;fillColor=#FFCCFF;" vertex="1" parent="1">
          <mxGeometry x="335.07" y="613" width="30" height="30" as="geometry" />
        </mxCell>
        <mxCell id="QDM2Al_dsE5SoyRe2S7c-84" value="" style="verticalLabelPosition=bottom;verticalAlign=top;html=1;strokeWidth=4;shape=mxgraph.flowchart.on-page_reference;plain-purple;gradientColor=none;strokeColor=#000000;fillColor=#FFCCFF;" vertex="1" parent="1">
          <mxGeometry x="715.32" y="613" width="30" height="30" as="geometry" />
        </mxCell>
        <mxCell id="QDM2Al_dsE5SoyRe2S7c-85" style="edgeStyle=orthogonalEdgeStyle;curved=1;rounded=0;orthogonalLoop=1;jettySize=auto;html=1;exitX=0.5;exitY=1;exitDx=0;exitDy=0;exitPerimeter=0;entryX=0;entryY=0.5;entryDx=0;entryDy=0;entryPerimeter=0;strokeWidth=4;endArrow=none;endFill=0;" edge="1" parent="1" source="QDM2Al_dsE5SoyRe2S7c-4" target="QDM2Al_dsE5SoyRe2S7c-82">
          <mxGeometry relative="1" as="geometry" />
        </mxCell>
        <mxCell id="QDM2Al_dsE5SoyRe2S7c-86" style="edgeStyle=orthogonalEdgeStyle;curved=1;rounded=0;orthogonalLoop=1;jettySize=auto;html=1;exitX=1;exitY=0.5;exitDx=0;exitDy=0;exitPerimeter=0;entryX=0;entryY=0.5;entryDx=0;entryDy=0;entryPerimeter=0;endArrow=none;endFill=0;strokeWidth=4;" edge="1" parent="1" source="QDM2Al_dsE5SoyRe2S7c-89" target="QDM2Al_dsE5SoyRe2S7c-84">
          <mxGeometry relative="1" as="geometry" />
        </mxCell>
        <mxCell id="QDM2Al_dsE5SoyRe2S7c-88" style="edgeStyle=orthogonalEdgeStyle;curved=1;rounded=0;orthogonalLoop=1;jettySize=auto;html=1;exitX=1;exitY=0.5;exitDx=0;exitDy=0;exitPerimeter=0;entryX=0;entryY=0.5;entryDx=0;entryDy=0;entryPerimeter=0;strokeWidth=4;endArrow=none;endFill=0;" edge="1" parent="1" source="QDM2Al_dsE5SoyRe2S7c-7" target="QDM2Al_dsE5SoyRe2S7c-84">
          <mxGeometry relative="1" as="geometry" />
        </mxCell>
        <mxCell id="QDM2Al_dsE5SoyRe2S7c-91" value="" style="edgeStyle=orthogonalEdgeStyle;curved=1;rounded=0;orthogonalLoop=1;jettySize=auto;html=1;exitX=1;exitY=0.5;exitDx=0;exitDy=0;exitPerimeter=0;entryX=0;entryY=0.5;entryDx=0;entryDy=0;entryPerimeter=0;endArrow=none;endFill=0;strokeWidth=4;" edge="1" parent="1" source="QDM2Al_dsE5SoyRe2S7c-82" target="QDM2Al_dsE5SoyRe2S7c-89">
          <mxGeometry relative="1" as="geometry">
            <mxPoint x="365.07" y="643" as="sourcePoint" />
            <mxPoint x="752.07" y="643" as="targetPoint" />
          </mxGeometry>
        </mxCell>
        <mxCell id="QDM2Al_dsE5SoyRe2S7c-89" value="" style="verticalLabelPosition=bottom;verticalAlign=top;html=1;strokeWidth=4;shape=mxgraph.flowchart.on-page_reference;plain-purple;gradientColor=none;strokeColor=#000000;fillColor=#FFCCFF;" vertex="1" parent="1">
          <mxGeometry x="505.19" y="613" width="30" height="30" as="geometry" />
        </mxCell>
        <mxCell id="QDM2Al_dsE5SoyRe2S7c-92" value="" style="verticalLabelPosition=bottom;verticalAlign=top;html=1;strokeWidth=4;shape=mxgraph.flowchart.on-page_reference;plain-purple;gradientColor=none;strokeColor=#000000;fillColor=#FFCCFF;" vertex="1" parent="1">
          <mxGeometry x="761.82" y="613" width="30" height="30" as="geometry" />
        </mxCell>
        <mxCell id="QDM2Al_dsE5SoyRe2S7c-93" style="edgeStyle=orthogonalEdgeStyle;curved=1;rounded=0;orthogonalLoop=1;jettySize=auto;html=1;exitX=1;exitY=0.5;exitDx=0;exitDy=0;exitPerimeter=0;entryX=0;entryY=0.5;entryDx=0;entryDy=0;entryPerimeter=0;strokeWidth=4;endArrow=none;endFill=0;" edge="1" parent="1" source="QDM2Al_dsE5SoyRe2S7c-84" target="QDM2Al_dsE5SoyRe2S7c-92">
          <mxGeometry relative="1" as="geometry" />
        </mxCell>
        <mxCell id="QDM2Al_dsE5SoyRe2S7c-95" style="edgeStyle=orthogonalEdgeStyle;curved=1;rounded=0;orthogonalLoop=1;jettySize=auto;html=1;exitX=1;exitY=0.5;exitDx=0;exitDy=0;exitPerimeter=0;entryX=0;entryY=0.5;entryDx=0;entryDy=0;entryPerimeter=0;strokeWidth=4;endArrow=none;endFill=0;" edge="1" parent="1" source="QDM2Al_dsE5SoyRe2S7c-92" target="QDM2Al_dsE5SoyRe2S7c-46">
          <mxGeometry relative="1" as="geometry" />
        </mxCell>
        <mxCell id="QDM2Al_dsE5SoyRe2S7c-96" value="" style="endArrow=classic;html=1;strokeWidth=1;fontFamily=Courier New;fontColor=#009900;exitX=1;exitY=0.75;exitDx=0;exitDy=0;" edge="1" parent="1">
          <mxGeometry width="50" height="50" relative="1" as="geometry">
            <mxPoint x="229.81" y="457.65999999999985" as="sourcePoint" />
            <mxPoint x="266.81" y="458" as="targetPoint" />
          </mxGeometry>
        </mxCell>
        <mxCell id="QDM2Al_dsE5SoyRe2S7c-97" value="" style="endArrow=classic;html=1;strokeWidth=1;fontFamily=Courier New;fontColor=#009900;exitX=1;exitY=0.75;exitDx=0;exitDy=0;" edge="1" parent="1">
          <mxGeometry width="50" height="50" relative="1" as="geometry">
            <mxPoint x="229.93" y="507.65999999999985" as="sourcePoint" />
            <mxPoint x="266.93" y="508" as="targetPoint" />
          </mxGeometry>
        </mxCell>
        <mxCell id="QDM2Al_dsE5SoyRe2S7c-98" value="" style="endArrow=classic;html=1;strokeWidth=1;fontFamily=Courier New;fontColor=#009900;exitX=1;exitY=0.75;exitDx=0;exitDy=0;" edge="1" parent="1">
          <mxGeometry width="50" height="50" relative="1" as="geometry">
            <mxPoint x="229.93" y="627.6599999999999" as="sourcePoint" />
            <mxPoint x="305.07" y="628" as="targetPoint" />
          </mxGeometry>
        </mxCell>
        <mxCell id="QDM2Al_dsE5SoyRe2S7c-110" value="&lt;div style=&quot;font-size: 11px;&quot;&gt;Features are always born from master and eventually go to release throughout a pull request (peer review) and automatic installed into development environment&lt;br style=&quot;font-size: 11px;&quot;&gt;&lt;/div&gt;" style="text;html=1;strokeColor=none;fillColor=none;align=left;verticalAlign=middle;whiteSpace=wrap;overflow=hidden;fontSize=11;fontStyle=2;fontColor=#000000;" vertex="1" parent="1">
          <mxGeometry x="338.76" y="518" width="196.43" height="105" as="geometry" />
        </mxCell>
        <mxCell id="QDM2Al_dsE5SoyRe2S7c-112" value="" style="endArrow=classic;html=1;strokeWidth=1;fontFamily=Courier New;fontColor=#009900;exitX=0.5;exitY=0;exitDx=0;exitDy=0;" edge="1" parent="1">
          <mxGeometry width="50" height="50" relative="1" as="geometry">
            <mxPoint x="545.94" y="604" as="sourcePoint" />
            <mxPoint x="544.94" y="523" as="targetPoint" />
          </mxGeometry>
        </mxCell>
        <mxCell id="QDM2Al_dsE5SoyRe2S7c-113" value="" style="endArrow=classic;html=1;strokeWidth=1;fontFamily=Courier New;fontColor=#009900;" edge="1" parent="1">
          <mxGeometry width="50" height="50" relative="1" as="geometry">
            <mxPoint x="560" y="528" as="sourcePoint" />
            <mxPoint x="560" y="608" as="targetPoint" />
          </mxGeometry>
        </mxCell>
        <mxCell id="QDM2Al_dsE5SoyRe2S7c-114" value="&lt;div style=&quot;font-size: 11px;&quot;&gt;Release branches are generated from master and a new artifact is generated and installed into the integration environment.&lt;/div&gt;" style="text;html=1;strokeColor=none;fillColor=none;align=left;verticalAlign=middle;whiteSpace=wrap;overflow=hidden;fontSize=11;fontStyle=2;fontColor=#000000;" vertex="1" parent="1">
          <mxGeometry x="297" y="328" width="253.18" height="48" as="geometry" />
        </mxCell>
        <mxCell id="QDM2Al_dsE5SoyRe2S7c-115" value="&lt;div style=&quot;&quot;&gt;development and integration environments are both controlled by the team threfore is possible to enable approvals for this cenarios.&lt;/div&gt;" style="text;html=1;strokeColor=none;fillColor=none;align=left;verticalAlign=middle;whiteSpace=wrap;overflow=hidden;fontSize=12;fontStyle=0;fontColor=#000000;labelBackgroundColor=none;labelBorderColor=none;" vertex="1" parent="1">
          <mxGeometry x="880" y="488" width="180" height="100" as="geometry" />
        </mxCell>
        <mxCell id="QDM2Al_dsE5SoyRe2S7c-116" value="" style="endArrow=classic;html=1;rounded=0;curved=1;" edge="1" parent="1">
          <mxGeometry width="50" height="50" relative="1" as="geometry">
            <mxPoint x="930.75" y="479" as="sourcePoint" />
            <mxPoint x="930.75" y="429" as="targetPoint" />
          </mxGeometry>
        </mxCell>
        <mxCell id="QDM2Al_dsE5SoyRe2S7c-117" value="" style="endArrow=classic;html=1;rounded=0;curved=1;" edge="1" parent="1">
          <mxGeometry width="50" height="50" relative="1" as="geometry">
            <mxPoint x="941.82" y="627.5800000000002" as="sourcePoint" />
            <mxPoint x="881.82" y="627.5800000000002" as="targetPoint" />
          </mxGeometry>
        </mxCell>
        <mxCell id="QDM2Al_dsE5SoyRe2S7c-120" value="Your feature branch" style="text;html=1;strokeColor=none;fillColor=none;align=left;verticalAlign=middle;whiteSpace=wrap;overflow=hidden;fontSize=14;fontStyle=0;fontColor=#009900;" vertex="1" parent="1">
          <mxGeometry x="30" y="468" width="127.63" height="20" as="geometry" />
        </mxCell>
        <mxCell id="QDM2Al_dsE5SoyRe2S7c-121" value="&lt;div style=&quot;font-size: 11px;&quot;&gt;This feature is updated with master. Receiving all development from previous release/1.1.0 or any further bugfix.&lt;br style=&quot;font-size: 11px;&quot;&gt;&lt;/div&gt;" style="text;html=1;strokeColor=none;fillColor=none;align=left;verticalAlign=middle;whiteSpace=wrap;overflow=hidden;fontSize=11;fontStyle=2;fontColor=#000000;" vertex="1" parent="1">
          <mxGeometry x="707.5" y="475.5" width="112.5" height="105" as="geometry" />
        </mxCell>
        <mxCell id="QDM2Al_dsE5SoyRe2S7c-122" value="" style="endArrow=classic;html=1;rounded=0;curved=1;" edge="1" parent="1">
          <mxGeometry width="50" height="50" relative="1" as="geometry">
            <mxPoint x="767.5" y="477.6600000000001" as="sourcePoint" />
            <mxPoint x="707.5" y="477.6600000000001" as="targetPoint" />
          </mxGeometry>
        </mxCell>
      </root>
    </mxGraphModel>
  </diagram>
</mxfile>
